<svg xmlns="http://www.w3.org/2000/svg" viewBox="100 969 450 401.666">
  <defs>
    <style>
      .cls-1 {
        fill: #00c999;
      }

      .cls-2 {
        fill: #d3555a;
      }

      .cls-11, .cls-3 {
        fill: #010101;
      }

      .cls-10, .cls-3 {
        opacity: 0.1;
      }

      .cls-4 {
        fill: #289ed9;
      }

      .cls-5 {
        fill: #2180b0;
      }

      .cls-6 {
        fill: #fff;
      }

      .cls-7 {
        fill: #ffd782;
      }

      .cls-8 {
        fill: #474756;
      }

      .cls-9 {
        fill: #f16466;
      }

      .cls-12 {
        fill: #989898;
      }

      .cls-13 {
        fill: #f1572f;
      }

      .cls-14 {
        fill: #e44928;
      }

      .cls-15 {
        fill: #76c4ed;
      }

      .cls-16 {
        fill: #66b4d8;
      }

      .cls-17 {
        fill: #f6cba4;
      }

      .cls-18 {
        fill: #e0b394;
      }

      .cls-19 {
        fill: #af7c37;
      }

      .cls-20 {
        fill: #676767;
      }

      .cls-21 {
        fill: #818181;
      }

      .cls-22 {
        fill: #f9c673;
      }

      .cls-23 {
        fill: #e6e6e5;
      }

      .cls-24 {
        fill: #f5c359;
      }

      .cls-25 {
        fill: #647a8a;
      }

      .cls-26 {
        fill: #fcd463;
      }

      .cls-27 {
        fill: #d5d6dc;
      }

      .cls-28 {
        fill: #e66454;
      }

      .cls-29 {
        fill: #e1e6e9;
      }

      .cls-30 {
        fill: #3b566a;
      }

      .cls-31 {
        fill: #314859;
      }
    </style>
  </defs>
  <g id="Clients-Icon" transform="translate(99.979 969.065)">
    <path id="Path_43" data-name="Path 43" class="cls-1" d="M37.693,81.087C70.37,59.562,91.449,85.548,145.2,69.822,209.777,50.975,212.9,3.688,262.752.119c41.822-3.011,83.756,31.562,101.823,65.131,15.725,29.22,3.792,41.041,21.636,78.849,19.405,40.93,39.48,39.7,53.755,71.153,19.294,42.38,10.483,105.169-23.532,136.507-26.878,24.759-48.4,10.372-138.18,22.194-105.615,13.941-141.972,42.491-171.972,18.179C87.434,376.741,98.475,362.8,75.389,313.84c-29.331-62.12-57.547-61.451-70.15-105.726C-7.252,164.842,2.34,104.507,37.693,81.087Z" transform="translate(0 0)"/>
    <g id="Group_10" data-name="Group 10" transform="translate(268.105 95.362)">
      <path id="Path_44" data-name="Path 44" class="cls-2" d="M304.215,87.6h0A36.887,36.887,0,0,0,267.3,124.515v14.721h73.83V124.515A36.887,36.887,0,0,0,304.215,87.6Z" transform="translate(-237.3 -85.258)"/>
      <path id="Path_45" data-name="Path 45" class="cls-3" d="M309.134,87.935a36.706,36.706,0,0,0-5.019-.335h0A36.887,36.887,0,0,0,267.2,124.515v14.721h9.926V124.515A37.136,37.136,0,0,1,309.134,87.935Z" transform="translate(-237.311 -85.258)"/>
      <path id="Path_46" data-name="Path 46" class="cls-4" d="M339.416,181.8H274.731A32.175,32.175,0,0,0,242.5,214.031v18.736H371.647V214.031A32.175,32.175,0,0,0,339.416,181.8Z" transform="translate(-240.158 -74.401)"/>
      <path id="Path_47" data-name="Path 47" class="cls-3" d="M285.326,181.8H274.731A32.175,32.175,0,0,0,242.5,214.031v18.736h10.595V214.031A32.175,32.175,0,0,1,285.326,181.8Z" transform="translate(-240.158 -74.401)"/>
      <g id="Group_8" data-name="Group 8" transform="translate(19.963 90.001)">
        <path id="Path_48" data-name="Path 48" class="cls-5" d="M300.4,225.2l30.781-59s16.06,6.245,16.171,22.751l-20.409,5.576,5.688,18.625Z" transform="translate(-253.448 -166.2)"/>
        <path id="Path_49" data-name="Path 49" class="cls-5" d="M305.252,225.2l-30.781-59s-16.06,6.245-16.171,22.751l20.409,5.576-5.688,18.625Z" transform="translate(-258.3 -166.2)"/>
      </g>
      <path id="Path_50" data-name="Path 50" class="cls-6" d="M302.648,223.4l21.636-41.6H280.9C289.934,199.087,302.648,223.4,302.648,223.4Z" transform="translate(-235.732 -74.401)"/>
      <path id="Path_51" data-name="Path 51" class="cls-7" d="M267.3,134.568V162.9a36.887,36.887,0,0,0,36.915,36.915h0A36.887,36.887,0,0,0,341.13,162.9V134.568L304.438,128.1Z" transform="translate(-237.3 -80.59)"/>
      <path id="Path_52" data-name="Path 52" class="cls-3" d="M277.214,162.8V134.469l32.119-5.576L304.427,128,267.4,134.469V162.8a36.887,36.887,0,0,0,36.915,36.915h0a37.932,37.932,0,0,0,5.019-.335A36.861,36.861,0,0,1,277.214,162.8Z" transform="translate(-237.288 -80.602)"/>
      <path id="Path_53" data-name="Path 53" class="cls-8" d="M305.64,158H298.5a12.589,12.589,0,0,0-12.6,12.6h0a5.512,5.512,0,0,0,5.13,5.576,5.434,5.434,0,0,0,5.688-5.353,5.353,5.353,0,0,0,10.706,0,5.3,5.3,0,0,0,5.688,5.353,5.512,5.512,0,0,0,5.13-5.576h0A12.661,12.661,0,0,0,305.64,158Z" transform="translate(-235.156 -77.144)"/>
      <path id="Path_54" data-name="Path 54" class="cls-9" d="M345.732,149.908a7.482,7.482,0,0,1-6.468-3.68c-.558-.892-2.788-4.015-10.818-6.915-6.468-2.342-14.721-3.569-23.2-3.569a70.863,70.863,0,0,0-23.2,3.569c-7.918,2.788-10.26,6.022-10.818,6.915a7.422,7.422,0,1,1-12.825-7.472c6.357-10.93,24.647-17.956,46.841-17.956s40.484,7.026,46.841,17.956a7.428,7.428,0,0,1-2.677,10.149A7.312,7.312,0,0,1,345.732,149.908Z" transform="translate(-238.444 -81.431)"/>
      <g id="Group_9" data-name="Group 9" class="cls-10" transform="translate(19.195 44.833)">
        <path id="Path_55" data-name="Path 55" class="cls-11" d="M267.859,145.105a7.332,7.332,0,0,1-2.677-10.149,25.946,25.946,0,0,1,9.7-9.257c-7.584,3.123-13.272,7.361-16.283,12.6a7.415,7.415,0,0,0,12.6,7.807A8.367,8.367,0,0,1,267.859,145.105Z" transform="translate(-257.611 -125.7)"/>
      </g>
      <path id="Path_56" data-name="Path 56" class="cls-11" d="M290.154,97a2.475,2.475,0,0,0-2.454,2.454v16.617a2.475,2.475,0,0,0,2.454,2.454h23.309a2.475,2.475,0,0,0,2.454-2.454V99.454A2.475,2.475,0,0,0,313.462,97Zm20.855,16.617h-18.4v-11.6h18.4Z" transform="translate(-234.948 -84.175)"/>
      <circle id="Ellipse_1" data-name="Ellipse 1" class="cls-11" cx="4.126" cy="4.126" r="4.126" transform="translate(45.726 68.588)"/>
      <circle id="Ellipse_2" data-name="Ellipse 2" class="cls-11" cx="4.126" cy="4.126" r="4.126" transform="translate(79.852 68.588)"/>
      <path id="Path_57" data-name="Path 57" class="cls-11" d="M305.894,155.8h-7.138A15.064,15.064,0,0,0,283.7,170.856a7.969,7.969,0,0,0,7.472,8.03,8.281,8.281,0,0,0,5.8-2.119,7.894,7.894,0,0,0,5.353,2.119,7.5,7.5,0,0,0,5.353-2.119,7.894,7.894,0,0,0,5.353,2.119h.335a7.89,7.89,0,0,0,7.472-8.03A14.9,14.9,0,0,0,305.894,155.8Zm7.361,18.179a2.84,2.84,0,0,1-3.011-2.9,2.454,2.454,0,0,0-4.907,0,2.9,2.9,0,0,1-5.8,0,2.454,2.454,0,1,0-4.907,0,2.84,2.84,0,0,1-3.011,2.9,3.062,3.062,0,0,1-2.788-3.123,10.186,10.186,0,0,1,10.149-10.149h7.138a10.186,10.186,0,0,1,10.149,10.149A3.445,3.445,0,0,1,313.254,173.979Z" transform="translate(-235.409 -77.398)"/>
      <path id="Path_58" data-name="Path 58" class="cls-11" d="M354.271,200.594c.112,0,.223-.112.335-.112h.112c.112,0,.223-.112.335-.223h0l.112-.112a29.707,29.707,0,0,1,13.495,24.2,2.51,2.51,0,0,0,5.019-.112A34.9,34.9,0,0,0,355.832,194.8c-1.227-8.922-6.8-14.61-10.929-17.733a42.886,42.886,0,0,0,1.115-9.257V156.542h1a9.99,9.99,0,0,0,8.7-14.944,30.215,30.215,0,0,0-9.591-9.591v-7.249a40.121,40.121,0,0,0-2.342-13.606,2.506,2.506,0,1,0-4.684,1.784,35.694,35.694,0,0,1,2.119,11.822v4.461c-.112,0-.112-.112-.223-.112a71.765,71.765,0,0,0-24.424-6.245,96.32,96.32,0,0,0-9.814-.446,88.329,88.329,0,0,0-26.989,3.9,57.775,57.775,0,0,0-7.249,2.9c-.112,0-.112,0-.223.112v-4.461a34.463,34.463,0,0,1,62.231-20.409,2.476,2.476,0,0,0,4.015-2.9,39.407,39.407,0,0,0-71.153,23.309v7.249a30.215,30.215,0,0,0-9.591,9.591,9.914,9.914,0,0,0,8.587,14.944h1v11.264a35.687,35.687,0,0,0,1.115,9.257c-4.126,3.123-9.7,8.922-10.929,17.733a35.551,35.551,0,0,0-10.93,9.48,2.465,2.465,0,1,0,3.9,3.011,28.357,28.357,0,0,1,7.584-7.026c0,.335,4.35,1.45,4.8,1.561,2.231.558,4.35,1.227,6.58,1.784.446.112,7.361,2.007,7.361,2.007L271.965,221.9a2.492,2.492,0,0,0,1.115,2.9.41.41,0,0,0,.335.112l32.342,12.045a2.463,2.463,0,0,0,1.784,0s32.231-12.045,32.342-12.045a2.363,2.363,0,0,0,1.45-3.011l-4.907-16.171C336.315,205.5,354.271,200.594,354.271,200.594Zm-87.994-49.071a4.776,4.776,0,0,1-2.454-.669,4.939,4.939,0,0,1-1.784-6.8c4.015-6.915,12.045-10.818,19.405-13.048a74.47,74.47,0,0,1,14.833-3.011c3.457-.335,7.026-.558,10.483-.558a85.009,85.009,0,0,1,17.621,1.673,60.389,60.389,0,0,1,13.829,4.349c5.13,2.342,10.372,5.688,13.272,10.706a5.038,5.038,0,0,1-1.784,6.8,5.142,5.142,0,0,1-6.915-2.007,12.833,12.833,0,0,0-1.561-1.9,28.812,28.812,0,0,0-9.034-5.465c-8.03-3.123-16.84-4.238-25.316-4.238H305.2c-9.368.223-19.517,1.673-27.881,6.134a22.064,22.064,0,0,0-4.573,3.123,21.41,21.41,0,0,0-1.561,1.673,11.31,11.31,0,0,1-1,1.45A5.536,5.536,0,0,1,266.277,151.523ZM341,154.534v13.272a35.024,35.024,0,0,1-13.941,27.658,33.769,33.769,0,0,1-20.409,6.8,34.919,34.919,0,0,1-26.766-12.825,34.46,34.46,0,0,1-7.584-21.524V154.646a10.169,10.169,0,0,0,1.9-1.9.109.109,0,0,1,.112-.112l.335-.335.112-.112a2.438,2.438,0,0,0,.335-.558c.223-.335,2.007-3.123,9.48-5.8a73.68,73.68,0,0,1,44.61,0,30.693,30.693,0,0,1,4.573,2.007,19.72,19.72,0,0,1,3.569,2.342C338.546,151.412,339.438,153.308,341,154.534Zm-63.57,66.358,5.019-16.394a2.248,2.248,0,0,0-.223-1.9,2.885,2.885,0,0,0-1.561-1.227l-18.4-5.019a21.579,21.579,0,0,1,7.7-14.275c0,.112.112.112.112.223A40.035,40.035,0,0,0,286.8,201.71l14.61,28.1Zm29.22,8.253-3.68-7.026-8.811-16.952h0a39.864,39.864,0,0,0,24.982,0h0l-8.811,16.952Zm25.985-27.77c-2.342.669-1.784,3.011-1.227,4.8.558,1.9,1.227,3.9,1.784,5.8.223.558,2.788,8.922,2.677,8.922L332.3,222.23l-20.521,7.7,14.61-28.1c.335-.558,1.338-.892,1.9-1.227a20.991,20.991,0,0,0,2.565-1.784l2.342-2.007a38.792,38.792,0,0,0,9.926-14.387c0-.112.112-.112.112-.223a21.579,21.579,0,0,1,7.7,14.275C351.037,196.356,332.635,201.375,332.635,201.375Z" transform="translate(-239.734 -85.5)"/>
      <path id="Path_59" data-name="Path 59" class="cls-11" d="M371.889,218.813a2.475,2.475,0,0,0-2.454,2.454V228.4h-17.51V199.854a2.454,2.454,0,0,0-4.907,0V228.4H267.835V199.854a2.454,2.454,0,0,0-4.907,0V228.4h-17.51V212.233a28.235,28.235,0,0,1,1.45-9.257,2.469,2.469,0,0,0-4.684-1.561,35.465,35.465,0,0,0-1.784,10.818v18.736a2.475,2.475,0,0,0,2.454,2.454H372a2.475,2.475,0,0,0,2.454-2.454v-9.591A2.671,2.671,0,0,0,371.889,218.813Z" transform="translate(-240.4 -72.603)"/>
    </g>
    <g id="Group_11" data-name="Group 11" transform="translate(15.109 94.023)">
      <path id="Path_60" data-name="Path 60" class="cls-12" d="M152.795,161.172V150.8H142.2v10.372" transform="translate(1.278 -76.636)"/>
      <path id="Path_61" data-name="Path 61" class="cls-13" d="M165.1,235.918H132.2V175.694A16.421,16.421,0,0,1,148.594,159.3h0a16.421,16.421,0,0,1,16.394,16.394v60.224Z" transform="translate(0.125 -75.656)"/>
      <path id="Path_62" data-name="Path 62" class="cls-14" d="M152.163,159.646a18.374,18.374,0,0,0-3.569-.446h0A16.421,16.421,0,0,0,132.2,175.594V235.93h7.138V175.706A16.494,16.494,0,0,1,152.163,159.646Z" transform="translate(0.125 -75.667)"/>
      <path id="Path_63" data-name="Path 63" class="cls-15" d="M118.9,173.8H81.536A24.536,24.536,0,0,0,57,198.336v35.911h86.321V198.336A24.3,24.3,0,0,0,118.9,173.8Z" transform="translate(-8.542 -73.985)"/>
      <path id="Path_64" data-name="Path 64" class="cls-16" d="M96.7,173.8H81.536A24.536,24.536,0,0,0,57,198.336v35.911H72.056V198.336A24.631,24.631,0,0,1,96.7,173.8Z" transform="translate(-8.542 -73.985)"/>
      <path id="Path_65" data-name="Path 65" class="cls-17" d="M86.764,181.943l-16.283-3.457a29.985,29.985,0,0,1-12.268-27.1L61,122.165A39.232,39.232,0,0,1,100.036,86.7h0a39.224,39.224,0,0,1,39.034,35.465l2.788,29.22a29.985,29.985,0,0,1-12.268,27.1l-16.283,3.457A22.422,22.422,0,0,1,86.764,181.943Z" transform="translate(-8.418 -84.023)"/>
      <path id="Path_66" data-name="Path 66" class="cls-18" d="M68.354,157.073a18.317,18.317,0,0,0,4.238,12.714l16.952,20.855a17.24,17.24,0,0,0,3.011,2.677,23.926,23.926,0,0,1-5.8-3.011L70.473,178.486a29.65,29.65,0,0,1-12.156-27.1l2.788-29.22A39.306,39.306,0,0,1,99.581,86.7c-12.268.335-26.209,11.822-26.878,24.2Z" transform="translate(-8.409 -84.023)"/>
      <path id="Path_67" data-name="Path 67" class="cls-19" d="M98.509,86.7a39.286,39.286,0,0,1,26.209,10.037,39.235,39.235,0,0,1-52.417,0A39.286,39.286,0,0,1,98.509,86.7Z" transform="translate(-6.779 -84.023)"/>
      <path id="Path_68" data-name="Path 68" class="cls-20" d="M132.726,146.425h13.16V130.7H54.1v15.725h78.626Z" transform="translate(-8.876 -78.952)"/>
      <path id="Path_69" data-name="Path 69" class="cls-12" d="M118.205,113H79.06A13.184,13.184,0,0,0,65.9,126.16v38.476a23.132,23.132,0,0,0,23.086,23.086H108.28a23.132,23.132,0,0,0,23.086-23.086V126.16A13.184,13.184,0,0,0,118.205,113Z" transform="translate(-7.516 -80.992)"/>
      <path id="Path_70" data-name="Path 70" class="cls-21" d="M74.711,164.636V126.16A13.184,13.184,0,0,1,87.871,113H79.06A13.184,13.184,0,0,0,65.9,126.16v38.476a23.132,23.132,0,0,0,23.086,23.086H97.8A22.99,22.99,0,0,1,74.711,164.636Z" transform="translate(-7.516 -80.992)"/>
      <rect id="Rectangle_2" data-name="Rectangle 2" class="cls-6" width="40.038" height="12.714" transform="translate(71.098 51.859)"/>
      <rect id="Rectangle_3" data-name="Rectangle 3" class="cls-22" width="13.829" height="42.38" transform="translate(17.565 91.563)"/>
      <path id="Path_71" data-name="Path 71" class="cls-23" d="M115.759,130.8v12.6H91l7.361-12.6Z" transform="translate(-4.623 -78.941)"/>
      <path id="Path_72" data-name="Path 72" class="cls-11" d="M68.944,231.31H60.022V196.96a19.134,19.134,0,0,1,9.145-16.283,3,3,0,1,0-3.123-5.13A24.847,24.847,0,0,0,54,196.849V234.21a3,3,0,0,0,3.011,3.011H68.944a2.956,2.956,0,1,0,0-5.911Z" transform="translate(-8.888 -73.836)"/>
      <path id="Path_73" data-name="Path 73" class="cls-11" d="M132.039,175.548a3,3,0,1,0-3.123,5.13,19,19,0,0,1,9.145,16.283v34.35H100.924V197.072l12.491,13.16a3.047,3.047,0,0,0,2.119.892,2.174,2.174,0,0,0,.892-.112,2.874,2.874,0,0,0,2.007-2.454l2.454-19.405a2.981,2.981,0,0,0-5.911-.781L113.3,201.645,100.032,187.7a3.047,3.047,0,0,0-2.119-.892h0a3.047,3.047,0,0,0-2.119.892L82.522,201.645l-1.673-13.272a2.981,2.981,0,0,0-5.911.781l2.454,19.294A2.873,2.873,0,0,0,79.4,210.9a2.955,2.955,0,0,0,3.123-.781l12.491-13.048V231.31h-18.4a3.011,3.011,0,1,0,0,6.022h64.462a3,3,0,0,0,3.011-3.011V196.96A24.788,24.788,0,0,0,132.039,175.548Z" transform="translate(-6.629 -73.836)"/>
      <path id="Path_74" data-name="Path 74" class="cls-11" d="M110.139,194.264a26.018,26.018,0,0,0,23.755-15.391l.335-.335a32.975,32.975,0,0,0,10.149-23.42h1.9a3,3,0,0,0,3.011-3.011V136.382a3,3,0,0,0-3.011-3.011h-2.788l-1-10.93a42.178,42.178,0,0,0-83.979,0l-1,10.93H54.711a3,3,0,0,0-3.011,3.011V152a3,3,0,0,0,3.011,3.011H56.5a32.78,32.78,0,0,0,10.149,23.42l.335.335a26.139,26.139,0,0,0,23.755,15.391l19.405.112Zm33.235-54.982V149.1h-7.138v-9.814Zm-7.138,26.32V155.007h2.342A28.719,28.719,0,0,1,136.236,165.6ZM121.961,97.237a36.193,36.193,0,0,1-21.413,7.026,35.7,35.7,0,0,1-21.413-7.026,36.142,36.142,0,0,1,42.826,0ZM64.414,122.888A36.192,36.192,0,0,1,74.451,101.14a41.891,41.891,0,0,0,51.971,0,36.192,36.192,0,0,1,10.037,21.747l1,10.372h-1.338v-3.569a16.183,16.183,0,0,0-16.171-16.171H80.92a16.183,16.183,0,0,0-16.171,16.171v3.569H63.41Zm-6.8,26.208v-9.814h7.138V149.1Zm4.907,5.911H64.86V165.6A24.878,24.878,0,0,1,62.518,155.007Zm8.141,13.16V129.691a10.186,10.186,0,0,1,10.149-10.149h39.257a10.186,10.186,0,0,1,10.149,10.149v38.476a20.134,20.134,0,0,1-20.075,20.075H90.845A20.015,20.015,0,0,1,70.659,168.167Z" transform="translate(-9.153 -84.3)"/>
      <path id="Path_75" data-name="Path 75" class="cls-11" d="M51.68,230.3H43.873a4.355,4.355,0,0,1-4.349-4.349v-9.926h4.238a3,3,0,0,0,3.011-3.011v-42.38a3,3,0,0,0-3.011-3.011H39.746V141.635a3.047,3.047,0,0,0-.892-2.119l-8.03-8.03a3,3,0,1,0-4.238,4.238l7.249,7.249v24.759H29.821a3,3,0,0,0-3.011,3.011v42.38a3,3,0,0,0,3.011,3.011H33.5v9.926a10.233,10.233,0,0,0,10.26,10.26h7.807a3.012,3.012,0,0,0,.112-6.022ZM32.943,173.643h7.918v36.469H32.943Z" transform="translate(-12.144 -78.958)"/>
      <path id="Path_76" data-name="Path 76" class="cls-11" d="M17.386,131.586l-2.9,2.9a3.1,3.1,0,0,0,0,4.238,2.962,2.962,0,0,0,4.238,0l2.9-2.9a3,3,0,0,0-4.238-4.238Z" transform="translate(-13.538 -78.946)"/>
      <path id="Path_77" data-name="Path 77" class="cls-11" d="M28.805,127.316a3.047,3.047,0,0,0,2.119-.892l2.9-2.9a3,3,0,1,0-4.238-4.238l-2.9,2.9a3.1,3.1,0,0,0,0,4.238A2.637,2.637,0,0,0,28.805,127.316Z" transform="translate(-12.132 -80.364)"/>
      <path id="Path_78" data-name="Path 78" class="cls-11" d="M18.624,119.386a3,3,0,0,0-4.238,4.238l2.9,2.9a2.962,2.962,0,0,0,4.238,0,3.1,3.1,0,0,0,0-4.238Z" transform="translate(-13.55 -80.352)"/>
      <path id="Path_79" data-name="Path 79" class="cls-11" d="M157.47,159.676v-8.364a3,3,0,0,0-3.011-3.011H143.752a3,3,0,0,0-3.011,3.011v8.364a19.341,19.341,0,0,0-11.041,17.51,3.011,3.011,0,1,0,6.022,0,13.495,13.495,0,0,1,26.989,0V187a3.011,3.011,0,0,0,6.022,0v-9.814A19.939,19.939,0,0,0,157.47,159.676Zm-10.706-1.784v-3.68h4.8v3.68a16.466,16.466,0,0,0-2.342-.112A17.267,17.267,0,0,0,146.763,157.891Z" transform="translate(-0.163 -76.924)"/>
      <path id="Path_80" data-name="Path 80" class="cls-11" d="M164.5,189.2a3,3,0,0,0-3.011,3.011v37.473H142.311a3.011,3.011,0,0,0,0,6.022H164.5a3,3,0,0,0,3.011-3.011V192.211A3.15,3.15,0,0,0,164.5,189.2Z" transform="translate(0.943 -72.21)"/>
      <path id="Path_81" data-name="Path 81" class="cls-11" d="M120.749,143.925V131.211a3,3,0,0,0-3.011-3.011h-5.465a3.011,3.011,0,1,0,0,6.022h2.454v6.692h-33.9v-6.692h22.863a3.011,3.011,0,0,0,0-6.022H77.811a3,3,0,0,0-3.011,3.011v12.714a3,3,0,0,0,3.011,3.011h40.038A2.977,2.977,0,0,0,120.749,143.925Z" transform="translate(-6.491 -79.24)"/>
    </g>
    <g id="Group_18" data-name="Group 18" transform="translate(132.589 124.247)">
      <g id="Group_12" data-name="Group 12" transform="translate(69.27 103.273)">
        <path id="Path_82" data-name="Path 82" class="cls-24" d="M204.086,230.989h.112L227.172,215.6h0V204a43.1,43.1,0,0,0-5.019,3.9c-10.037,9.145-19.963,7.584-19.963,7.584-6.022.112-14.61-6.022-18.29-8.922a27.622,27.622,0,0,0-2.9-2.119v11.041h0Z" transform="translate(-181 -204)"/>
        <path id="Path_83" data-name="Path 83" class="cls-24" d="M202.572,228.2h0L195.1,238.349h0Z" transform="translate(-179.375 -201.211)"/>
      </g>
      <path id="Path_84" data-name="Path 84" class="cls-25" d="M182.136,141.623h14.275a14.164,14.164,0,0,0,3.792-.558c2.565-.781,6.692-2.342,9.814-3.569a12.935,12.935,0,0,1,8.7-.112l15.056,5.242A16.892,16.892,0,0,1,244.925,155.9v26.878a48.882,48.882,0,0,1,5.911-16.283,11.023,11.023,0,0,0,1.673-5.911v-23.2s-1.45-11.376-12.6-14.052c0,0,4.573-9.7-7.249-11.933H189.274A28.772,28.772,0,0,0,160.5,140.174v17.063a16.092,16.092,0,0,0,3.569,10.149,19.211,19.211,0,0,1,4.015,10.93V155.564A17.653,17.653,0,0,1,182.136,141.623Z" transform="translate(-114.092 -111.4)"/>
      <path id="Path_85" data-name="Path 85" class="cls-26" d="M203.857,223.547s9.926,1.561,19.963-7.584a43.1,43.1,0,0,1,5.019-3.9c.223-.112.335-.223.558-.335,4.461-3.011,13.048-11.264,14.833-31.562V153.286a17.034,17.034,0,0,0-11.153-13.272l-15.056-5.242a12.945,12.945,0,0,0-8.7.112c-3.123,1.227-7.249,2.677-9.814,3.569a11.176,11.176,0,0,1-3.792.558H181.441A17.457,17.457,0,0,0,167.5,152.951v27.77s.446,21.971,15.056,31.562c.112.112.223.112.335.223,1,.669,1.9,1.338,2.9,2.119C189.247,217.524,197.835,223.658,203.857,223.547Z" transform="translate(-113.286 -108.787)"/>
      <g id="Group_13" data-name="Group 13" transform="translate(75.627 130.262)">
        <path id="Path_86" data-name="Path 86" class="cls-27" d="M209.215,237.8l-4.015,5.8,3.792,23.2,9.145-16.84Z" transform="translate(-184.568 -227.094)"/>
        <path id="Path_87" data-name="Path 87" class="cls-27" d="M195.957,266.908l3.792-23.309-4.126-5.8L186.7,249.956Z" transform="translate(-186.7 -227.094)"/>
        <path id="Path_88" data-name="Path 88" class="cls-27" d="M195.135,238.349l-.335.446,7.807-10.595h0Z" transform="translate(-185.766 -228.2)"/>
      </g>
      <g id="Group_14" data-name="Group 14" transform="translate(84.549 130.15)">
        <path id="Path_89" data-name="Path 89" class="cls-28" d="M210.2,267.9l-3.792-23.2,4.015-5.8h0L202.618,228.2h0l-7.807,10.595-.112.112h0l4.126,5.8-3.792,23.309h0l7.584,13.718Z" transform="translate(-194.7 -228.089)"/>
        <path id="Path_90" data-name="Path 90" class="cls-28" d="M201.8,276.269l.781-.669Z" transform="translate(-193.882 -222.625)"/>
        <path id="Path_91" data-name="Path 91" class="cls-28" d="M201.769,276.269l-.669-.669Z" transform="translate(-193.962 -222.625)"/>
        <path id="Path_92" data-name="Path 92" class="cls-28" d="M201.7,276.2l.112.112V276.2H201.7Z" transform="translate(-193.893 -222.556)"/>
        <path id="Path_93" data-name="Path 93" class="cls-28" d="M201.8,228.1v.112h0Z" transform="translate(-193.882 -228.1)"/>
        <path id="Path_94" data-name="Path 94" class="cls-28" d="M201.8,228.1v.112h0Z" transform="translate(-193.882 -228.1)"/>
      </g>
      <g id="Group_15" data-name="Group 15" transform="translate(57.003 114.871)">
        <path id="Path_95" data-name="Path 95" class="cls-29" d="M201.8,229.791h0l7.807,10.706,9.034,12.156,18.625-33.792L224.774,214.4h0Z" transform="translate(-166.335 -214.4)"/>
        <path id="Path_96" data-name="Path 96" class="cls-29" d="M197.547,240.5h0l.446-.558,7.472-10.149h-.112L182.379,214.4h0L170,218.861l18.625,33.792Z" transform="translate(-170 -214.4)"/>
      </g>
      <g id="Group_16" data-name="Group 16" transform="translate(92.468 119.221)">
        <path id="Path_97" data-name="Path 97" class="cls-30" d="M294.02,272.948l-4.126-25.2a19.03,19.03,0,0,0-12.268-14.833L237.254,218.3l10.706,21.524-13.383.223,4.573,8.7L202.569,282.2l-.669.669h83.756A8.425,8.425,0,0,0,294.02,272.948Z" transform="translate(-201.789 -218.3)"/>
        <path id="Path_98" data-name="Path 98" class="cls-30" d="M201.8,276.2v.112h0Z" transform="translate(-201.8 -211.627)"/>
      </g>
      <g id="Group_17" data-name="Group 17" transform="translate(92.356 119.332)">
        <path id="Path_99" data-name="Path 99" class="cls-31" d="M209.384,269.033,201.8,282.862h0l.781-.669,36.469-33.458-4.573-8.7,13.495-.223L237.265,218.4,218.64,252.192Z" transform="translate(-201.688 -218.4)"/>
        <path id="Path_100" data-name="Path 100" class="cls-31" d="M201.7,276.2h0Z" transform="translate(-201.7 -211.738)"/>
      </g>
      <path id="Path_101" data-name="Path 101" class="cls-30" d="M211.245,282.885h0l-.781-.781-36.58-33.458,4.573-8.7-13.383-.223L175.779,218.2l-40.372,14.61a19.03,19.03,0,0,0-12.268,14.833l-4.126,25.2a8.585,8.585,0,0,0,8.476,10.037h83.756Z" transform="translate(-118.888 -99.091)"/>
      <path id="Path_102" data-name="Path 102" class="cls-31" d="M206.572,282.862h0l-7.584-13.718-9.257-16.952L171.106,218.4,160.4,239.813l13.383.223-4.573,8.7,36.58,33.458.669.669h.112v0Z" transform="translate(-114.104 -99.068)"/>
    </g>
    <path id="Path_103" data-name="Path 103" class="cls-6" d="M203.529,203.129h0A16.706,16.706,0,0,1,186.8,186.4h33.458A16.706,16.706,0,0,1,203.529,203.129Z" transform="translate(21.527 21.491)"/>
    <g id="Group_19" data-name="Group 19" transform="translate(200.521 178.002)">
      <circle id="Ellipse_3" data-name="Ellipse 3" class="cls-11" cx="4.126" cy="4.126" r="4.126"/>
      <circle id="Ellipse_4" data-name="Ellipse 4" class="cls-11" cx="4.126" cy="4.126" r="4.126" transform="translate(40.707)"/>
    </g>
  </g>
</svg>
