<svg xmlns="http://www.w3.org/2000/svg" viewBox="668 205 512 406.4">
  <defs>
    <style>
      .cls-1 {
        fill: #c8cacc;
      }

      .cls-2, .cls-3 {
        fill: #fff;
      }

      .cls-3 {
        opacity: 0.1;
      }

      .cls-4 {
        fill: #807d7d;
      }

      .cls-5 {
        fill: #fbb429;
      }

      .cls-6 {
        fill: #f5a209;
      }

      .cls-7 {
        fill: #0e7886;
      }

      .cls-8 {
        fill: #ff5b61;
      }

      .cls-9 {
        fill: #ecf0f1;
      }

      .cls-10 {
        fill: #20d0c2;
      }

      .cls-11 {
        fill: #15bdb1;
      }

      .cls-12 {
        fill: #666;
      }

      .cls-13 {
        fill: #d0d1d4;
      }
    </style>
  </defs>
  <g id="Cover-Icon" transform="translate(668 205)">
    <path id="Path_2" data-name="Path 2" class="cls-1" d="M218.6,304.8l-10.9,38.9-36.8,27.9v6H341.2v-6l-36.8-27.9-10.9-38.9-37.4-.5-37.5.5Z"/>
    <path id="Path_3" data-name="Path 3" class="cls-2" d="M170.8,374.6v3H341.2v-3Z"/>
    <path id="Path_4" data-name="Path 4" d="M66,0H446a22.747,22.747,0,0,1,22.7,22.7V256.8H43.3V22.7A22.747,22.747,0,0,1,66,0ZM58.7,241.4H453.3V22.7a7.341,7.341,0,0,0-7.3-7.3H66a7.341,7.341,0,0,0-7.3,7.3Z"/>
    <path id="Path_5" data-name="Path 5" class="cls-3" d="M183.6,256.8H362.1L227.2,131.2l-63.7,63.3Z"/>
    <path id="Path_6" data-name="Path 6" class="cls-4" d="M183.6,256.8H362.1l-16.6-15.4H178.6Z"/>
    <path id="Path_7" data-name="Path 7" class="cls-2" d="M208,175.7a21.7,21.7,0,0,0-.2-30.8,22.279,22.279,0,0,0-21.3-5.9l-7.1-7.2a2.117,2.117,0,0,0-3.1,0l-11.2,11.1a2.3,2.3,0,0,0,0,3.1l6.7,6.8a22.333,22.333,0,0,0,5.4,22.6c8.6,8.5,22.4,8.7,30.8.3Z"/>
    <path id="Path_8" data-name="Path 8" class="cls-5" d="M180.2,115.7,164,99.3a14.457,14.457,0,0,0-20.3-.1l-11.6,11.5A14.457,14.457,0,0,0,132,131l16.2,16.4c-3.8,14.4-.1,31.6,15.2,47.1l63.7-63.3c-15.3-15.4-32.4-19.2-46.9-15.5Z"/>
    <path id="Path_9" data-name="Path 9" class="cls-6" d="M132.4,110.5l-.3.3a14.457,14.457,0,0,0-.1,20.3l16.2,16.4c-3.8,14.4-.1,31.6,15.2,47.1l1.9-1.9c-14.1-15.6-17.3-32.5-13.6-46.9l-17-17.2A15.163,15.163,0,0,1,132.4,110.5Z"/>
    <path id="Path_10" data-name="Path 10" class="cls-2" d="M468.7,256.8v24.8c0,12.5-11.3,22.7-25,22.7H68.3c-13.8,0-25-10.2-25-22.7V256.8Z"/>
    <path id="Path_11" data-name="Path 11" class="cls-7" d="M145.5,118.8,79.6,233V364.9h22.2L92.5,233,154,123.3C156.3,118.3,148.5,114.4,145.5,118.8Z"/>
    <path id="Path_12" data-name="Path 12" class="cls-4" d="M0,398.7H512V377.5H0Z"/>
    <g id="Group_1" data-name="Group 1">
      <path id="Path_13" data-name="Path 13" class="cls-5" d="M168.4,364.9H53c-8.5,0-18.8,12.9-10.3,12.9H175.2C183.8,377.8,176.9,364.9,168.4,364.9Z"/>
      <path id="Path_14" data-name="Path 14" class="cls-5" d="M86,224.1a9.2,9.2,0,1,0,9.2,9.2A9.176,9.176,0,0,0,86,224.1Z"/>
    </g>
    <path id="Path_15" data-name="Path 15" class="cls-2" d="M86,228.8a4.5,4.5,0,1,0,4.5,4.5A4.419,4.419,0,0,0,86,228.8Z"/>
    <path id="Path_16" data-name="Path 16" class="cls-8" d="M154.2,361l-23.7-3.9V365h23.7Z"/>
    <path id="Path_17" data-name="Path 17" class="cls-2" d="M223.2,315.4h42.7a4.332,4.332,0,0,1,4.3,4.3v53.5a4.332,4.332,0,0,1-4.3,4.3H223.2a4.332,4.332,0,0,1-4.3-4.3V319.7A4.268,4.268,0,0,1,223.2,315.4Z"/>
    <g id="Group_2" data-name="Group 2">
      <path id="Path_18" data-name="Path 18" class="cls-9" d="M270.2,327.6h12c4,0,7.2,2.8,7.2,6.2v29.5c0,3.4-3.2,6.3-7.2,6.3h-12v-5h12c.7,0,2.2-.4,2.2-1.3V333.8c0-.8-1.5-1.3-2.2-1.3h-12Z"/>
      <path id="Path_19" data-name="Path 19" class="cls-9" d="M264.4,377.6V315.4h1.5a4.268,4.268,0,0,1,4.3,4.3v53.6a4.332,4.332,0,0,1-4.3,4.3h-1.5Z"/>
    </g>
    <path id="Path_20" data-name="Path 20" class="cls-10" d="M235.8,344.5h12.9V356H235.8Z"/>
    <path id="Path_21" data-name="Path 21" class="cls-11" d="M235.8,344.5h12.9l-.7-2.4H236.8Z"/>
    <path id="Path_22" data-name="Path 22" class="cls-5" d="M242.8,315.4v27.9c0,.4-.9.4-.9,0V315.4Z"/>
    <path id="Path_23" data-name="Path 23" class="cls-12" d="M41,406.4H471v-7.7H41Z"/>
    <path id="Path_24" data-name="Path 24" class="cls-13" d="M256,286.8a7.2,7.2,0,1,0-7.2-7.2A7.17,7.17,0,0,0,256,286.8Z"/>
    <path id="Path_25" data-name="Path 25" class="cls-5" d="M356.4,148.6a57.167,57.167,0,0,0-10.4-6c-2-1-4-1.9-5.4-2.8-3.3-2.1-5.7-7.4-5.3-11.9a6.268,6.268,0,0,1,3.5-5.6c2.8-1.2,4.9,1,5.6,1.7a16.566,16.566,0,0,1,3.5,6.1,8.681,8.681,0,0,1,.6,3.7,2.248,2.248,0,0,0-2.4,1.5,2.2,2.2,0,0,0,1.4,2.8,3.637,3.637,0,0,0,4.4-1.2,65.66,65.66,0,0,0,5.5,12.6C357.1,149.2,356.7,148.9,356.4,148.6Zm29.7,78.9h18.2v-1.9c-5.4-.3-12.4-12.3-12.8-18.8l-2.4-37.1c8-1,15.4-5.9,21.3-13.5a12.65,12.65,0,0,0-.3,2.8,7.292,7.292,0,0,0,4.4,6.8,8.525,8.525,0,0,0,3.5.8,7.681,7.681,0,0,0,5-1.8c3.2-2.6,3.5-5.8,2.2-7.7a3.5,3.5,0,0,0-4.8-1,2.232,2.232,0,0,0-.8,3,2.344,2.344,0,0,0,1.8,1.1,5.343,5.343,0,0,1-1.1,1.3,3.648,3.648,0,0,1-3.9.4,3.172,3.172,0,0,1-1.9-2.9c0-2.5,1.3-4.6,4.1-6.9,2.7-2.2,6.4-3.9,9.6-5.5,2.2-1.1,4.2-2.1,5.8-3.1a15.046,15.046,0,0,0,5.6-6.9,19.239,19.239,0,0,0,1.7-9c-.3-4.4-2.5-7.7-6.1-9.3-3.9-1.7-8-.4-11.2,3.5-.1.1-.2.3-.3.4a84.537,84.537,0,0,0,.9-12.5H347.8a84.537,84.537,0,0,0,.9,12.5c-.1-.1-.2-.3-.3-.4-3.3-3.9-7.4-5.2-11.2-3.5-3.6,1.6-5.8,4.9-6.1,9.3a19.238,19.238,0,0,0,1.7,9,16.4,16.4,0,0,0,5.6,6.9c1.6,1,3.7,2,5.8,3.1a59.913,59.913,0,0,1,9.6,5.5c2.8,2.2,4.1,4.4,4.1,6.9a3.269,3.269,0,0,1-1.9,2.9,3.648,3.648,0,0,1-3.9-.4,3.975,3.975,0,0,1-1.1-1.3,2.107,2.107,0,0,0,1.8-1.1,2.258,2.258,0,0,0-.8-3,3.484,3.484,0,0,0-4.8,1c-1.3,1.9-.9,5.1,2.2,7.7a7.681,7.681,0,0,0,5,1.8,8.525,8.525,0,0,0,3.5-.8,7.622,7.622,0,0,0,4.4-6.8,12.651,12.651,0,0,0-.3-2.8c5.9,7.6,13.2,12.5,21.3,13.5l-2.4,37.1c-.4,6.5-7.4,18.5-12.8,18.8v1.9h18Zm29.7-78.9h0a9.017,9.017,0,0,0-1,.9,76.033,76.033,0,0,0,5.5-12.6,3.637,3.637,0,0,0,4.4,1.2,2.33,2.33,0,0,0,1.4-2.8,2.292,2.292,0,0,0-2.4-1.5,8.681,8.681,0,0,1,.6-3.7,15.792,15.792,0,0,1,3.5-6.1c.7-.7,2.8-3,5.6-1.7a6.268,6.268,0,0,1,3.5,5.6c.3,4.5-2,9.8-5.3,11.9a52.518,52.518,0,0,1-5.4,2.8,63.681,63.681,0,0,0-10.4,6Z"/>
    <path id="Path_26" data-name="Path 26" class="cls-6" d="M416.4,109.7s7.4,50.4-28.7,59.3l2.2,37.7c-.1,10,8.1,20.8,14.4,20.8v-1.9c-5.4-.3-12.4-12.3-12.8-18.8l-2.4-37.1c8-1,15.3-5.8,21.2-13.4a.1.1,0,0,1,.1-.1,49.652,49.652,0,0,0,4.9-7.1c-.2.1-.3.3-.5.4.6-1.1,1.2-2.2,1.8-3.4,1.9-4.5,3.7-9.3,3.7-9.3a100.12,100.12,0,0,0,3.3-14.6,84.537,84.537,0,0,0,.9-12.5Z"/>
    <g id="Group_3" data-name="Group 3">
      <path id="Path_27" data-name="Path 27" class="cls-12" d="M412.4,260.9H359.8V231.4a3.9,3.9,0,0,1,3.9-3.9h44.8a3.9,3.9,0,0,1,3.9,3.9v29.5Z"/>
      <path id="Path_28" data-name="Path 28" class="cls-12" d="M417.2,266.8H354.9v-5a3.543,3.543,0,0,1,3.5-3.5h55.3a3.543,3.543,0,0,1,3.5,3.5v5Z"/>
    </g>
    <path id="Path_29" data-name="Path 29" class="cls-5" d="M425.4,109.7H346.8a1.752,1.752,0,0,1-1.7-1.7h0a1.752,1.752,0,0,1,1.7-1.7h78.6a1.752,1.752,0,0,1,1.7,1.7h0A1.685,1.685,0,0,1,425.4,109.7Z"/>
    <path id="Path_30" data-name="Path 30" class="cls-10" d="M312.6,300.1H451.3v4.7c-6.6,8.4-5.5,17.7,0,24.7v4.7H312.6C290.9,334.1,290.9,300.1,312.6,300.1Z"/>
    <path id="Path_31" data-name="Path 31" class="cls-2" d="M451.3,329.4c-5.6-8.2-6-16.4,0-24.7H312.6a12.307,12.307,0,0,0,0,24.6l138.7.1Z"/>
    <g id="Group_4" data-name="Group 4">
      <path id="Path_32" data-name="Path 32" class="cls-9" d="M450,306.7a22.629,22.629,0,0,1,1.3-2H312.6c-13.3,0-17,19-3.6,24.1-9.1-4.4-5.7-19.6,3.9-22.1Z"/>
      <path id="Path_33" data-name="Path 33" class="cls-9" d="M448.6,309.1h-145a7.636,7.636,0,0,1,.9-.9H449.1a4.052,4.052,0,0,0-.5.9Zm-146.2,1.8h0c-.2.3-.3.6-.5.9H447.6l.3-.9Zm-1.2,2.6h0a2.92,2.92,0,0,0-.2.9H447a2.92,2.92,0,0,1,.2-.9Zm-.4,2.7h0v1h146v-.9l-146-.1Zm.1,2.7h0a2.92,2.92,0,0,0,.2.9h146c0-.3-.1-.6-.1-.9Zm.7,2.7h0c.1.3.3.6.4.9H447.7l-.3-.9Zm1.4,2.7h0c.2.3.5.6.7.9h145c-.1-.3-.3-.6-.4-.9Zm2.5,2.7h0a6.706,6.706,0,0,0,1.4.9H450.2l-.6-.9Z"/>
    </g>
    <path id="Path_34" data-name="Path 34" class="cls-8" d="M463.2,334.1H302.3v6c7.6,10.7,6.4,22.6,0,31.5v6H463.2c25.1,0,25.1-43.5,0-43.5Z"/>
    <path id="Path_35" data-name="Path 35" class="cls-2" d="M302.3,371.6c6.5-10.5,7-21,0-31.5H463.2c7.6,0,13.8,7.1,13.8,15.8s-6.2,15.8-13.8,15.8H302.3Z"/>
    <g id="Group_5" data-name="Group 5">
      <path id="Path_36" data-name="Path 36" class="cls-9" d="M303.8,342.6c-.5-.8-1-1.7-1.5-2.5H463.2c15.4,0,19.7,24.3,4.2,30.7,10.6-5.7,6.6-25-4.5-28.2Z"/>
      <path id="Path_37" data-name="Path 37" class="cls-9" d="M305.4,345.6H473.6a10.594,10.594,0,0,0-1-1.2H304.9a6.117,6.117,0,0,1,.5,1.2Zm169.7,2.3h0l.6,1.2h-169a5.64,5.64,0,0,0-.4-1.2Zm1.3,3.4h0l.3,1.2H307.3c-.1-.4-.1-.8-.2-1.2Zm.5,3.4h0v1.2H307.6v-1.2Zm-.1,3.4h0c-.1.4-.1.8-.2,1.2H307.3a4.868,4.868,0,0,0,.1-1.2Zm-.8,3.5h0a6.118,6.118,0,0,1-.5,1.2h-169l.3-1.2Zm-1.6,3.4h0c-.3.4-.5.8-.8,1.2H305.4c.2-.4.3-.8.5-1.2Zm-3,3.4h0c-.5.4-1.1.8-1.6,1.2H303.6c.2-.4.5-.8.7-1.2Z"/>
    </g>
    <path id="Path_38" data-name="Path 38" class="cls-5" d="M438.7,266h-107v4.7a23.577,23.577,0,0,1,0,24.7v4.7H438.8c16.7-.1,16.7-34.1-.1-34.1Z"/>
    <path id="Path_39" data-name="Path 39" class="cls-2" d="M331.7,295.3c4.3-8.2,4.6-16.4,0-24.7H438.8c5,0,9.2,5.6,9.2,12.3,0,6.8-4.1,12.3-9.2,12.3l-107.1.1Z"/>
    <g id="Group_6" data-name="Group 6">
      <path id="Path_40" data-name="Path 40" class="cls-9" d="M332.7,272.7a18.645,18.645,0,0,0-1-2H438.8c10.2,0,13.1,19,2.8,24.1,7.1-4.4,4.4-19.6-3-22.1Z"/>
      <path id="Path_41" data-name="Path 41" class="cls-9" d="M333.7,275h112a5.5,5.5,0,0,0-.7-.9H333.4Zm112.9,1.8h0c.1.3.3.6.4.9H334.5a2.92,2.92,0,0,1-.2-.9Zm.9,2.7h0c.1.3.1.6.2.9H335c0-.3-.1-.6-.1-.9Zm.4,2.7h0v1H335.2v-.9H447.9Zm-.1,2.6h0c0,.3-.1.6-.1.9H335c0-.3.1-.6.1-.9Zm-.5,2.7h0l-.3.9H334.5c.1-.3.1-.6.2-.9Zm-1.1,2.7h0l-.6.9H333.7l.3-.9Zm-2,2.7h0a4.811,4.811,0,0,1-1.1.9H332.5c.2-.3.3-.6.5-.9Z"/>
    </g>
    <path id="Path_42" data-name="Path 42" class="cls-2" d="M149.3,119.2a2.8,2.8,0,1,0,2.8,2.8A2.8,2.8,0,0,0,149.3,119.2Z"/>
  </g>
</svg>
