<svg xmlns="http://www.w3.org/2000/svg" viewBox="1010 2993 70 69.471">
  <defs>
    <style>
      .cls-1 {
        fill: #0d71ba;
      }

      .cls-2 {
        fill: #56a1d3;
      }

      .cls-3 {
        fill: #fff;
      }
    </style>
  </defs>
  <g id="_1493686928_social-media_facebook" data-name="1493686928_social-media_facebook" transform="translate(1010 2993)">
    <path id="Path_258" data-name="Path 258" class="cls-1" d="M56.558,5.179C45.432.932,20.387.759,9.942,8.081-2.814,17.023-.329,34.011,1.488,47.453,4.479,69.579,54,63.907,67.178,53.973c3.815-2.876,2.65-15.121,2.668-21.421C69.886,18.92,67.337,9.294,56.558,5.179Z" transform="translate(0 -1.222)"/>
    <path id="Path_259" data-name="Path 259" class="cls-2" d="M70.392,109.047s-12.78-.041-17-.532c-5.695-.662-21.6-.754-26.3-1.068C21.856,107.1,5.8,108,5.8,108a41.354,41.354,0,0,1,.119,6.363c-1.286,15.067,38.169,10.649,48.119,10.858C58.482,125.311,72.583,121.566,70.392,109.047Z" transform="translate(-3.178 -58.825)"/>
    <path id="Path_260" data-name="Path 260" class="cls-3" d="M94.342,22.412c.045-2.532-3.878-3.367-6.188-3a23.247,23.247,0,0,1-3.394-.09A9.742,9.742,0,0,0,80.5,20.393a13.027,13.027,0,0,0-5.592,5.357,21.787,21.787,0,0,0-2.683,11.287c-9.3.081-6.179,8.251-5.232,8.37,1.15.143,3.97.137,5.121.2-.005,5.324-1.309,10.319-1.5,15.628-.149,4.045-.8,9.038.229,17.719,0,0,9.113,1.427,9.639-4.092.38-3.982.754-7.474.95-11.494.268-5.48.285-10.97.56-16.45.018-.357.023-.714.032-1.071a28.689,28.689,0,0,0,4.5-.514c5.428-1.093,6.846-7.759-.475-7.831-.8-.008-3.376-.2-4.17-.139-.042-1.808-.045-3.615.084-5.423a4.316,4.316,0,0,1,1.749-3.514,3.573,3.573,0,0,1,2.574-.478,20.039,20.039,0,0,0,4.156-.248C92.753,27.327,94.269,26.568,94.342,22.412Z" transform="translate(-36.008 -10.586)"/>
    <g id="Group_52" data-name="Group 52" transform="translate(0.266 0)">
      <path id="Path_261" data-name="Path 261" d="M99.818,59.574h0c0-.015,0-.028-.006-.038C99.814,59.545,99.816,59.556,99.818,59.574Z" transform="translate(-54.952 -32.619)"/>
      <path id="Path_262" data-name="Path 262" d="M99.81,59.515Z" transform="translate(-54.949 -32.598)"/>
      <path id="Path_263" data-name="Path 263" d="M69.73,22.717c.019-2.577-.006-5.162-.076-7.74L69.6,13.044l-.034-.965c-.016-.324-.023-.628-.055-1.012a10.939,10.939,0,0,0-1.225-4.115,12.5,12.5,0,0,0-2.535-3.367,12.851,12.851,0,0,0-3.457-2.374A11.6,11.6,0,0,0,58.233.193c-.74-.046-1.346,0-2,0L54.3.257c-2.572.109-5.138.14-7.705.2C44.027.541,41.462.28,38.9.113c-.64-.042-1.28-.063-1.919-.087L35.05,0c-1.312-.011-2.594.1-3.881.179S28.6.366,27.317.406c-1.284.065-2.568.1-3.853.085S20.89.437,19.6.416L17.674.377c-.642,0-1.285-.007-1.926.014S14.466.42,13.826.449l-.963.037c-.345.013-.69.039-1.035.074A13.43,13.43,0,0,0,7.761,1.616a10.906,10.906,0,0,0-5.741,6.09,12.149,12.149,0,0,0-.793,4.126c-.027,1.322-.012,2.595-.008,3.884l.02,3.85c-.013,1.282-.049,2.564-.079,3.845l-.143,3.842c-.022,1.28.109,2.564.09,3.845-.029,2.563-.333,5.11-.443,7.666C.581,41.353.555,43.94.643,46.522l.149,3.868.077,3.864.052,1.929.029.963A9.813,9.813,0,0,0,1.037,58.2a11.41,11.41,0,0,0,1.351,3.963,12.44,12.44,0,0,0,2.585,3.228A12.966,12.966,0,0,0,8.43,67.653a10.922,10.922,0,0,0,1.987.661,10.077,10.077,0,0,0,2.07.238c1.307.036,2.589.035,3.877.035,2.573,0,5.142-.055,7.71.008s5.122.187,7.689.344l4.494.243a1.114,1.114,0,0,0,.477.113l1.717.006,1.017.055c2.57.121,5.144.151,7.719.066s5.15-.327,7.73-.47l1.937-.134.971-.074c.319-.024.688-.064,1.024-.121a12,12,0,0,0,3.868-1.376,12.781,12.781,0,0,0,5.428-5.893,11.087,11.087,0,0,0,.959-3.94c.069-1.3.1-2.583.123-3.871l.045-3.859.092-3.862c.025-.637.048-1.311.043-1.947l.021-1.918.087-3.833c.038-1.277.088-2.553.09-3.831s-.016-2.558.014-3.846C69.691,27.841,69.7,25.3,69.73,22.717Zm-22.988,12c-.033.009-.064.017-.115.036a.969.969,0,0,0-.206.1.848.848,0,0,0-.2.188l-.009.01c-.018.024-.039.054-.056.083s-.038.067-.044.082l-.018.04-.028.071a1.611,1.611,0,0,0-.056.195c-.024.106-.037.192-.049.277-.085.649-.1,1.212-.127,1.8-.051,1.152-.123,2.33-.123,3.413v.006c0,.623-.036,1.16-.047,1.736l-.024,1.7-.031,3.39-.04,3.389c-.009,1.129-.005,2.259,0,3.388l.245,6.774c.024,1.129.077,2.258,0,3.388l-.109,1.695-.047.582c-.5-.014-1.005-.014-1.506-.018l-2.465-.024c-1.282-.027-2.57,0-3.849.009-.154-2.86-.464-5.741-.5-8.621q-.081-2.436-.095-4.876c-.023-1.627-.023-3.253-.016-4.88l.009-4.881.084-4.883.142-2.446.114-.616v-.312c0-.114-.109-.193-.12-.363l-.061-.06c-.12-.456-.063-.132-.09-.236l-.027-.03a1.052,1.052,0,0,0-.29-.372,1.155,1.155,0,0,0-.127-.087,1.285,1.285,0,0,0-.262-.12,2.392,2.392,0,0,0-.26-.071c-.141-.03-.256-.048-.372-.066-.228-.033-.441-.056-.654-.076-1.306-.116-2.573-.174-3.847-.218.018-.86.047-1.722.09-2.591l.089-1.83c.008-.256.008-.514.012-.771l.08-.009a3.675,3.675,0,0,0,1.212-.234,6.917,6.917,0,0,1,1.192-.581c.405-.087.812-.151,1.226-.225.209-.028.418-.061.638-.112a2.436,2.436,0,0,0,.354-.107.969.969,0,0,0,.236-.123.6.6,0,0,0,.177-.2.561.561,0,0,0,.06-.2l0-.038c.057-.395.1-.826.124-1.234.059-.813.043-1.671.068-2.428.109-1.592.264-3.22.409-4.829l.116-1.208.031-.3.043-.262c.033-.177.071-.365.117-.546a7.372,7.372,0,0,1,.825-2.03,5.739,5.739,0,0,1,1.426-1.589,9.182,9.182,0,0,1,1.874-1.179A14.808,14.808,0,0,1,46.4,10.047a20.976,20.976,0,0,1,4.8-.026l1.208.118a10.5,10.5,0,0,1,1.205.168,10.3,10.3,0,0,1,1.193.347l.243.083a6.848,6.848,0,0,0-.02,1.1c.063.556.2,1.111.236,1.671s.06,1.122.077,1.687c.01.32.011.641.007.962-.3-.012-.6-.028-.9-.053-.552-.029-1.121-.088-1.692-.129a11.243,11.243,0,0,0-3.563.19,7.508,7.508,0,0,0-.934.3c-.157.065-.314.132-.472.213l-.118.061-.059.032-.029.016-.066.039-.088.055-.175.126a3.967,3.967,0,0,0-1.239,1.912,13.613,13.613,0,0,0-.6,3.557c-.066,1.154-.059,2.291-.011,3.424l.045.847.012.2v.01c.014.1.043.3.039.266l0,.006,0,.012.032.09a.984.984,0,0,0,.061.127,1.086,1.086,0,0,0,.17.227.815.815,0,0,0,.113.1l.064.045a1.319,1.319,0,0,0,.316.153,3.362,3.362,0,0,0,.576.129c.625.087,1.176.114,1.745.146,1.935.1,3.842.075,5.754.172,0,.339,0,.678-.009,1.017,0,.633-.027,1.267-.042,1.9s-.082,1.268-.15,1.9l-.1.93a16.8,16.8,0,0,1-2.468.326c-.564.024-1.146.014-1.713.016-.274,0-.591,0-.887.009l-.887.037c-.3.016-.592.034-.914.074-.081.009-.165.022-.26.04A1.113,1.113,0,0,0,46.743,34.714Zm20.971-.448c-.035,1.288-.115,2.577-.182,3.868l-.087,1.938-.1,1.941c-.028.648-.061,1.3-.073,1.944-.005.335-.016.632-.036.941l-.061.944c-.182,2.54-.106,5.1-.15,7.652l-.078,3.793a8.971,8.971,0,0,1-.676,3.219,10.652,10.652,0,0,1-4.45,5.068,10.133,10.133,0,0,1-3.242,1.212c-.291.053-.551.086-.872.115l-.947.083c-.633.054-1.269.094-1.905.125q-3.559.186-7.143.2l-.35-12.7c-.093-2.257-.268-4.514-.217-6.772,0-1.129.129-2.257.175-3.385l.2-3.341v.006c0-1.21-.011-2.329,0-3.472.007-.5-.018-1.022.021-1.477.211-.026.419-.047.645-.063.276-.02.547-.034.824-.036s.531,0,.831.009c.582.019,1.146.011,1.729.041,1.159.029,2.345.25,3.543.185a1.08,1.08,0,0,0,1-.878l.019-.1c.026-.138.041-.3.061-.452l.035-.241.024-.166.009-.116v-.03l0-.06L56.3,33.3c.01-.635.032-1.271.022-1.907s-.016-1.274-.047-1.912-.047-1.276-.1-1.915l-.016-.173a.809.809,0,0,0-.864-.732l-1.653.122c-.552.028-1.1.036-1.654.032-1.1,0-2.2-.008-3.3-.046-.543-.021-1.1-.045-1.608-.107-.057-.007-.116-.016-.171-.026l-.038-.768c-.042-1.093-.045-2.189.021-3.276a11.225,11.225,0,0,1,.568-3.158,2.511,2.511,0,0,1,.767-1.2l.053-.037.089-.053.153-.076c.112-.054.23-.1.347-.146a6.105,6.105,0,0,1,.739-.215,22.946,22.946,0,0,1,6.463.047.775.775,0,0,0,.833-.677l.012-.1c.14-1.146.262-2.3.331-3.474.045-1.171.049-2.349-.009-3.51a1.131,1.131,0,0,0-1.02-1.067l-.1-.01-2.35-.227c-.807-.082-1.62-.147-2.437-.212s-1.635-.122-2.488-.148a24.5,24.5,0,0,0-2.546.079,17.916,17.916,0,0,0-2.543.375,8.29,8.29,0,0,0-2.481.869A19.43,19.43,0,0,0,39.1,11.229a8.951,8.951,0,0,0-1.821,1.96,8.686,8.686,0,0,0-1.124,2.443c-.058.217-.107.429-.154.659l-.03.151-.014.075-.018.127-.041.309c-.059.4-.087.81-.129,1.214-.154,1.626-.317,3.216-.406,4.888l-.028.175-.023.181v.3l.019.6-.012,1.178c-.006.176-.008.341-.017.506l-.167.028c-.734.1-1.535.162-2.331.215s-1.525.081-2.4.15a1.063,1.063,0,0,0-.97,1.093v.028L29.3,31.166c-.029,1.227-.057,2.464-.007,3.71l-.013.039a1.07,1.07,0,0,0,1.08,1.032c1.6-.018,3.238-.028,4.8.046.1.005.195.014.293.022l.012.445.056,2.434.093,4.877c-.009.813-.008,1.626-.036,2.44l-.1,2.44c-.045.813-.049,1.627-.072,2.44s.005,1.627.007,2.44q.009,2.44.06,4.885c.061,2.873.042,5.746.116,8.635L31.8,66.907c-2.561-.114-5.155-.2-7.712-.233-1.283-.008-2.566.008-3.848-.014s-2.562-.11-3.84-.17-2.56-.152-3.8-.277a7.757,7.757,0,0,1-1.607-.3A8.445,8.445,0,0,1,9.5,65.3a10.757,10.757,0,0,1-1.388-.872,10.789,10.789,0,0,1-1.269-1.057,12.792,12.792,0,0,1-2.014-2.588,9.94,9.94,0,0,1-.689-1.454,8.074,8.074,0,0,1-.458-1.512c-.052-.264-.082-.5-.114-.792l-.1-.958-.187-1.912c-.228-2.549-.419-5.094-.539-7.643s-.175-5.1-.078-7.649c.091-2.573.447-5.138.525-7.712.014-.643.034-1.287.033-1.931s-.008-1.287.045-1.93l.181-1.928.2-1.928a75.362,75.362,0,0,0,.2-7.711l.014-3.8a9.558,9.558,0,0,1,.578-3.261A8.383,8.383,0,0,1,8.792,3.921a10.91,10.91,0,0,1,3.3-.9c.29-.033.582-.06.876-.076l.961-.05c.643-.038,1.285-.065,1.927-.089,2.566-.122,5.134-.148,7.7-.2s5.129-.09,7.682-.1c1.272-.015,2.556-.038,3.786-.012l1.908.063,1.936.006c2.58-.033,5.153-.153,7.724-.154l7.7-.014,1.915.009c.621.009,1.319,0,1.8.06a9.238,9.238,0,0,1,3.2.935,10.758,10.758,0,0,1,4.731,4.745,8.948,8.948,0,0,1,.936,3.175l.211,3.776.4,7.652.169,3.841.079,1.924c.023.636.025,1.262.029,1.906C67.741,31.689,67.755,32.978,67.713,34.265Z" transform="translate(-0.588 0)"/>
    </g>
  </g>
</svg>
