<svg xmlns="http://www.w3.org/2000/svg" viewBox="1110 2993 70 69.609">
  <defs>
    <style>
      .cls-1 {
        fill: #ee3d8c;
      }

      .cls-2 {
        fill: #f26a09;
      }

      .cls-3 {
        fill: #fee000;
      }

      .cls-4 {
        fill: #fff;
      }
    </style>
  </defs>
  <g id="_1493686937_social-media_instagram" data-name="1493686937_social-media_instagram" transform="translate(1108.438 2992.033)">
    <g id="Group_48" data-name="Group 48" transform="translate(1.562 0.967)">
      <path id="Path_252" data-name="Path 252" class="cls-1" d="M71.854,22.109c-.316-3.55-.313-7.283-1.7-10.472C68.053,6.825,63.1,4.9,58.291,4.026,45.65,1.728,29-.962,16.832,2.958,11.39,4.711,9.306,6.2,6.138,11.345c-1.9,3.087-1.022,7.73-.9,11.031a39.313,39.313,0,0,1-.257,5.483S56.276,67.866,56.279,67.866h0s0-.066,0-.066c4.755-.272,9.824-.945,12.768-5.133C71.969,58.51,71.805,53,72.4,48.15a121.188,121.188,0,0,0,.981-12.325C73.441,32.63,72.357,27.751,71.854,22.109Z" transform="translate(-3.381 -0.967)"/>
      <path id="Path_253" data-name="Path 253" class="cls-2" d="M53.829,88.156c-3.875-15.1-7.409-31.571-22.2-39.057-8.3-4.2-19.954-2.248-28.234,3.535-.92,5.5-1.586,13.093-1.369,16.314L32.88,94.532c6.8.21,13.48-1.541,20.263-1.875.523-.026,1.007-.017,1.542-.017h0C54.483,91.261,54.193,89.573,53.829,88.156Z" transform="translate(-1.79 -25.742)"/>
      <path id="Path_254" data-name="Path 254" class="cls-3" d="M1.563,93.57c.342,5.092.595,10.255,2.47,15.06a18.908,18.908,0,0,0,8.492,9.926c5.292,2.9,14.18.416,20.03.6-.47-5.446.45-9.816-5.386-18.044C19.082,89.708,1.485,92.417,1.563,93.57Z" transform="translate(-1.562 -50.363)"/>
    </g>
    <g id="Group_49" data-name="Group 49" transform="translate(47.268 16.19)">
      <path id="Path_255" data-name="Path 255" class="cls-4" d="M106.474,34.119a5.182,5.182,0,0,0-4.931,1.775c-.782,1.043-1.661,5.258,3.093,6.79a4.594,4.594,0,0,0,4.781-2.259A4.338,4.338,0,0,0,106.474,34.119Z" transform="translate(-100.924 -34.062)"/>
    </g>
    <g id="Group_51" data-name="Group 51" transform="translate(9.148 9.293)">
      <g id="Group_50" data-name="Group 50">
        <path id="Path_256" data-name="Path 256" class="cls-4" d="M48.574,74.277c-4.323-.025-8.634-.268-12.957-.294-4.392-.026-9.971.5-13.415-2.808-3.661-3.521-2.912-9.579-3.4-14.233A74.6,74.6,0,0,1,18.28,41.4c.28-2.794.371-5.576.445-8.381.06-2.293-.05-4.667.886-6.813,1.9-4.343,5.79-5.719,10.157-6.144,4.488-.461,8.983-.684,13.492-.711,6.218.038,12.438-.48,18.654-.2a12.835,12.835,0,0,1,5.8,1.234,10.6,10.6,0,0,1,5.557,8.555c.2,7.982-.836,15.969-.053,23.916a77.522,77.522,0,0,1,.044,11.295,10.413,10.413,0,0,1-5.449,8.284c-2.955,1.667-6.674,1.383-9.964,1.627-1.492.091-3.018-.144-4.522-.093C51.743,74.053,50.165,74.246,48.574,74.277Zm-.041-2.627A104.5,104.5,0,0,0,61.65,70.467c2.54-.388,4.543-.584,6.415-2.554C69.9,65.979,70,63.66,70.088,61.139c.207-5.92.058-11.813-.089-17.733-.067-2.811-.025-5.619-.024-8.431,0-2.683.414-5.92-.83-8.393-1.853-3.687-5.2-3.987-8.8-4.053-5.825-.105-11.582-.065-17.4-.488a44.518,44.518,0,0,0-10.108.359c-2.826.434-6.651.494-8.922,2.4a7.977,7.977,0,0,0-2.546,4.8c-.356,3.219-.321,6.532-.435,9.767-.127,3.583-.249,7.177-.023,10.758.239,3.8.782,7.606.876,11.41.074,2.986.169,6.181,3.155,7.778,1.672.894,3.539.724,5.362.82C36.4,70.447,42.41,71.555,48.533,71.65Z" transform="translate(-18.054 -19.069)"/>
      </g>
      <path id="Path_257" data-name="Path 257" class="cls-4" d="M75.669,61.858a15.147,15.147,0,0,1-.95,4.442,19.961,19.961,0,0,1-2.782,4.644,10.784,10.784,0,0,1-4.073,3.532,14.106,14.106,0,0,1-5.33,1.2,14.845,14.845,0,0,1-13.606-8.707A12.674,12.674,0,0,1,47.8,59.084a15.428,15.428,0,0,1,3.586-6.958,8.832,8.832,0,0,1,4.305-2.989c.837-.273,1.622-.712,2.461-.993a14.5,14.5,0,0,1,3-.676,11.461,11.461,0,0,1,7.259,1.558,11.908,11.908,0,0,1,2.977,2.826,26.788,26.788,0,0,1,2.394,3.5A14.908,14.908,0,0,1,75.669,61.858Zm-3.251-.082a10.355,10.355,0,0,0-3.855-8.035,11.755,11.755,0,0,0-6.82-2.4l.083,0a11.073,11.073,0,0,0-4.5.875,16.028,16.028,0,0,0-2.745,1.595,10.06,10.06,0,0,0-.753,15.439,12.7,12.7,0,0,0,8.086,3.106c-.2-.006.073-.011.11-.012.264-.015.528-.021.791-.037a9.5,9.5,0,0,0,2.429-.527A10.706,10.706,0,0,0,69.278,69.3a12.061,12.061,0,0,0,3.143-7.6C72.419,61.721,72.418,61.748,72.418,61.775Z" transform="translate(-34 -34.364)"/>
    </g>
  </g>
</svg>
