<svg xmlns="http://www.w3.org/2000/svg" viewBox="140 2372 250 250">
  <defs>
    <style>
      .cls-1 {
        fill: #ffc800;
      }

      .cls-2 {
        fill: #ea291c;
      }

      .cls-3 {
        fill: #ea3b36;
      }

      .cls-4 {
        fill: #a81000;
      }

      .cls-5, .cls-6 {
        fill: #fff;
      }

      .cls-5 {
        opacity: 0.5;
      }
    </style>
  </defs>
  <g id="Group_47" data-name="Group 47" transform="translate(140 2372)">
    <path id="Path_268" data-name="Path 268" class="cls-1" d="M125,0A125,125,0,1,1,0,125,125,125,0,0,1,125,0Z"/>
    <path id="Path_252" data-name="Path 252" class="cls-2" d="M32.254,69.1,53.739,42.342C62.137,31.6,61.942,31.6,69.754,31.6h75c7.813,0,7.617,0,16.016,10.742L182.059,69.1c14.453,16.016,14.062,16.016,0,32.031L123.27,160.116c-5.078,5.273-11.133,10.742-16.016,10.742-5.078,0-10.937-5.273-16.016-10.742L32.254,101.131C18,85.116,17.8,85.116,32.254,69.1Z" transform="translate(20.48 30.119)"/>
    <path id="Path_253" data-name="Path 253" class="cls-3" d="M43.8,63.8l42.383,76.172,42.383-74.8Z" transform="translate(41.747 60.809)"/>
    <path id="Path_254" data-name="Path 254" class="cls-3" d="M64.431,31.1,66.58,96.725,19.9,83.444Z" transform="translate(18.967 29.642)"/>
    <path id="Path_255" data-name="Path 255" class="cls-3" d="M89.348,31.1,87.2,96.725l46.68-13.281Z" transform="translate(83.112 29.642)"/>
    <path id="Path_256" data-name="Path 256" class="cls-3" d="M43.8,96.262,86.183,32.2l42.383,64.062Z" transform="translate(41.747 30.691)"/>
    <path id="Path_257" data-name="Path 257" class="cls-4" d="M187.359,68.086,166.07,41.523C158.844,32.148,157.086,30,149.273,30H69.586c-7.422,0-9.18,1.758-16.8,11.523L31.5,68.086C24.078,76.484,19,81.172,19,86.641c0,5.859,4.687,9.766,12.3,18.164l.391.391.2.2L90.875,164.18c5.469,5.664,11.328,12.109,18.164,12.109,5.078,0,11.523-3.906,19.531-12.109l58.789-58.789.2-.2.391-.391c7.617-8.594,10.938-12.7,10.938-18.164C198.687,81.172,194.781,76.484,187.359,68.086ZM162.945,43.867l21.289,26.758c6.055,6.641,9.375,10.547,10.352,13.867l-40.43,9.375L156.3,36.055C158.062,37.617,159.82,39.961,162.945,43.867ZM109.43,169.844,69.391,98.359h80.078ZM70.953,94.453,109.43,35.859l39.258,58.594Zm81.641-60.547-1.953,56.055-37.7-56.055Zm-46.484,0-37.7,57.227L66.852,33.906ZM34.625,70.625,56.109,43.867c3.516-4.3,5.469-6.836,7.031-8.2l1.562,58.2L24.469,83.906C25.641,80.781,28.961,76.875,34.625,70.625Zm58.789,91.016L34.625,102.656C28.18,95.43,24.664,91.523,24.078,87.813L64.9,97.773c0,.2,0,.2.2.391l41.016,73.047C101.813,169.844,97.516,165.742,93.414,161.641Zm91.016-58.984-58.789,58.984c-3.906,4.1-8.594,8.2-12.5,9.961l41.016-73.047c0-.2,0-.2.2-.391l40.43-9.57C193.8,92.109,190.289,96.016,184.43,102.656Z" transform="translate(18.109 28.594)"/>
    <path id="Path_258" data-name="Path 258" class="cls-5" d="M85.691,72.556a1.74,1.74,0,0,1-1.562-.977L70.261,50.1a1.977,1.977,0,1,1,3.32-2.148L87.448,69.431a1.921,1.921,0,0,1-.586,2.734A7.681,7.681,0,0,1,85.691,72.556Z" transform="translate(66.653 44.827)"/>
    <path id="Path_259" data-name="Path 259" class="cls-5" d="M72.192,51.566a1.74,1.74,0,0,1-1.563-.977L65.161,42a1.977,1.977,0,1,1,3.32-2.148l5.469,8.594a2.081,2.081,0,0,1-1.758,3.125Z" transform="translate(61.792 37.106)"/>
    <path id="Path_260" data-name="Path 260" class="cls-5" d="M67.092,119.367a1.761,1.761,0,0,1-.977-.2,1.976,1.976,0,0,1-.781-2.734L88.967,71.516a2.011,2.011,0,0,1,3.516,1.953L68.85,118.2A2.088,2.088,0,0,1,67.092,119.367Z" transform="translate(62.009 67.156)"/>
    <path id="Path_261" data-name="Path 261" class="cls-5" d="M27.329,74.241a2.776,2.776,0,0,1-1.172-.391,2.1,2.1,0,0,1-.391-2.734L50.376,40.257A1.953,1.953,0,0,1,53.5,42.6L28.891,73.46A2.411,2.411,0,0,1,27.329,74.241Z" transform="translate(24.234 37.673)"/>
    <path id="Path_262" data-name="Path 262" class="cls-6" d="M53.517,76.156A2.088,2.088,0,0,0,51.564,74.4l-3.711-.586c-.977-.2-2.148-1.172-2.148-2.148l-.586-3.711c-.2-.977-.977-1.953-1.758-1.953A2.088,2.088,0,0,0,41.6,67.953l-.391,3.906c-.2.977-1.172,2.148-2.148,2.148l-3.711.586c-.977.2-1.953.977-1.953,1.758a2.088,2.088,0,0,0,1.953,1.758l3.711.586c.977.2,2.148,1.172,2.148,2.148l.586,3.711c.2.977.977,1.953,1.758,1.953a2.088,2.088,0,0,0,1.758-1.953l.586-4.1A2.992,2.992,0,0,1,48.048,78.3l3.516-.2C52.541,77.719,53.517,76.938,53.517,76.156Z" transform="translate(31.834 62.906)"/>
    <path id="Path_263" data-name="Path 263" class="cls-6" d="M108.184,41.092a2.088,2.088,0,0,0-1.953-1.758l-9.375-1.562a3.177,3.177,0,0,1-2.344-2.344L92.95,26.053c-.2-.977-.977-1.953-1.758-1.953a2.088,2.088,0,0,0-1.758,1.953l-1.563,9.375a3.177,3.177,0,0,1-2.344,2.344l-9.375,1.563c-.977.2-1.953.977-1.953,1.758a2.088,2.088,0,0,0,1.953,1.758l9.18,1.172a3.259,3.259,0,0,1,2.344,2.148l1.758,9.766c.2.977.977,1.953,1.758,1.953a2.088,2.088,0,0,0,1.758-1.953l1.758-9.961a2.954,2.954,0,0,1,2.344-2.148l9.18-1.172A1.573,1.573,0,0,0,108.184,41.092Z" transform="translate(70.722 22.97)"/>
    <path id="Path_264" data-name="Path 264" class="cls-6" d="M34.813,107.625a7.813,7.813,0,1,1,7.813-7.812A7.835,7.835,0,0,1,34.813,107.625Zm0-11.914a4.1,4.1,0,1,0,4.1,4.1A4.005,4.005,0,0,0,34.813,95.711Z" transform="translate(25.734 87.688)"/>
    <path id="Path_265" data-name="Path 265" class="cls-6" d="M57.812,28.625a7.812,7.812,0,1,1,7.813-7.812A7.835,7.835,0,0,1,57.812,28.625Zm0-11.914a4.1,4.1,0,1,0,4.1,4.1A4.005,4.005,0,0,0,57.812,16.711Z" transform="translate(47.656 12.391)"/>
    <path id="Path_266" data-name="Path 266" class="cls-6" d="M111.812,95.625a7.813,7.813,0,1,1,7.813-7.812A7.835,7.835,0,0,1,111.812,95.625Zm0-11.914a4.1,4.1,0,1,0,4.1,4.1A4.005,4.005,0,0,0,111.812,83.711Z" transform="translate(99.125 76.25)"/>
    <path id="Path_267" data-name="Path 267" class="cls-6" d="M104.913,110.056a2.088,2.088,0,0,0-1.953-1.758l-3.711-.586c-.977-.2-2.148-1.172-2.148-2.148l-.586-3.711c-.2-.977-.977-1.953-1.758-1.953A2.088,2.088,0,0,0,93,101.853l-.586,3.711c-.2.977-1.172,2.148-2.148,2.148l-3.711.586c-.977.2-1.953.977-1.953,1.758a2.088,2.088,0,0,0,1.953,1.758l3.711.586c.977.2,2.148,1.172,2.148,2.148L93,118.259c.2.977.977,1.953,1.758,1.953a1.787,1.787,0,0,0,1.563-1.953l.586-4.1a2.992,2.992,0,0,1,2.148-2.148l3.516-.2C103.936,111.423,104.913,110.838,104.913,110.056Z" transform="translate(80.634 95.217)"/>
  </g>
</svg>
