<svg xmlns="http://www.w3.org/2000/svg" viewBox="890 2372 250 250">
  <defs>
    <style>
      .cls-1 {
        fill: #ffc908;
      }

      .cls-2 {
        fill: #fcd18c;
      }

      .cls-3 {
        fill: #fff;
      }

      .cls-4 {
        fill: #f9de58;
      }

      .cls-5 {
        fill: #818181;
      }

      .cls-6 {
        fill: #e6e6e5;
      }

      .cls-7 {
        fill: #5dc4b7;
      }

      .cls-8 {
        fill: #f47a53;
      }

      .cls-9 {
        fill: #2aaae2;
      }
    </style>
  </defs>
  <g id="Group_55" data-name="Group 55" transform="translate(890 2372)">
    <circle id="Ellipse_14" data-name="Ellipse 14" class="cls-1" cx="125" cy="125" r="125"/>
    <g id="Group_54" data-name="Group 54" transform="translate(56.95 15.85)">
      <path id="Path_275" data-name="Path 275" class="cls-2" d="M242.183,154.6l-20.25,18.7a23.914,23.914,0,0,1-32.35,0l-20.25-18.7a24.375,24.375,0,0,1-7.8-19.75l1.2-24.25a36.995,36.995,0,0,1,.65-4.8,42.716,42.716,0,0,1,9.4-19.75,46.336,46.336,0,0,1,7-6.65,43.2,43.2,0,0,1,52,0c1.15.9,2.3,1.8,3.35,2.8a44.28,44.28,0,0,1,3.65,3.85,42.716,42.716,0,0,1,9.4,19.75,48.279,48.279,0,0,1,.65,4.8l1.15,24.25A24.533,24.533,0,0,1,242.183,154.6Z" transform="translate(-137.683 -51.2)"/>
      <path id="Path_276" data-name="Path 276" class="cls-3" d="M250.1,226.1a15.864,15.864,0,0,1-.65,4.4,14.779,14.779,0,0,1-28.2,0,14.2,14.2,0,0,1-.65-4.4Z" transform="translate(-167.25 -128.9)"/>
      <path id="Path_277" data-name="Path 277" class="cls-4" d="M249.9,86.9h-6.45a48.8,48.8,0,1,0-97.6,0H139.4a55.25,55.25,0,0,1,110.5,0Z" transform="translate(-126.65 -31.7)"/>
      <path id="Path_278" data-name="Path 278" class="cls-5" d="M249.95,105.75A42.716,42.716,0,0,0,240.55,86a44.283,44.283,0,0,0-3.65-3.85c-.5-.5-1.05-.95-1.6-1.4a.9.9,0,0,0-.35-.25l-1.35-1.05c-.05,0-.05-.05-.1-.05h0a43.2,43.2,0,0,0-52,0h0l-.05.05c-.6.45-1.2.9-1.75,1.4l-.15.15c-.55.45-1.1.95-1.6,1.45-.05.05-.15.1-.2.2-.55.5-1.05,1-1.55,1.55l-.15.15c-.55.55-1.05,1.15-1.55,1.75a42.716,42.716,0,0,0-9.4,19.75,36.191,36.191,0,0,0,16.4-9.65,36.343,36.343,0,0,0,52,0A37.36,37.36,0,0,0,249.95,105.75Z" transform="translate(-139.5 -51.2)"/>
      <g id="Group_51" data-name="Group 51" transform="translate(43.8 69.6)">
        <circle id="Ellipse_15" data-name="Ellipse 15" class="cls-5" cx="4.95" cy="4.95" r="4.95"/>
        <circle id="Ellipse_16" data-name="Ellipse 16" class="cls-5" cx="4.95" cy="4.95" r="4.95" transform="translate(38.6)"/>
      </g>
      <g id="Group_52" data-name="Group 52" transform="translate(34.9 117.65)">
        <path id="Path_279" data-name="Path 279" class="cls-6" d="M190.15,267l25.25,25.25-11.85,19.3-19.85-39.6Z" transform="translate(-183.7 -267)"/>
        <path id="Path_280" data-name="Path 280" class="cls-6" d="M278.15,267,252.9,292.25l11.85,19.3,19.85-39.6Z" transform="translate(-218.3 -267)"/>
      </g>
      <path id="Path_281" data-name="Path 281" class="cls-7" d="M250,338.3l-7-11.9-7,11.9,7,7Z" transform="translate(-174.95 -179.05)"/>
      <path id="Path_282" data-name="Path 282" class="cls-7" d="M250,397.1l-19.25-32.7L211.5,397.1l19.25,19.25Z" transform="translate(-162.7 -198.05)"/>
      <path id="Path_283" data-name="Path 283" class="cls-8" d="M170,222.9a3.243,3.243,0,0,1-3.25,3.25h-15.2A12.953,12.953,0,0,1,138.6,213.2v-8.6h6.45v8.6a6.487,6.487,0,0,0,6.5,6.5H166.8A3.222,3.222,0,0,1,170,222.9Z" transform="translate(-126.25 -118.15)"/>
      <g id="Group_53" data-name="Group 53" transform="translate(0 49.75)">
        <path id="Path_284" data-name="Path 284" class="cls-9" d="M134.15,131.2a20.25,20.25,0,1,0,0,40.5" transform="translate(-113.9 -131.2)"/>
        <path id="Path_285" data-name="Path 285" class="cls-9" d="M345.6,131.2a20.25,20.25,0,0,1,0,40.5" transform="translate(-229.75 -131.2)"/>
      </g>
      <path id="Path_286" data-name="Path 286" class="cls-5" d="M188.75,238a3.244,3.244,0,0,1-3.25,3.25h-9.4V234.8h9.45A3.222,3.222,0,0,1,188.75,238Z" transform="translate(-145 -133.25)"/>
    </g>
  </g>
</svg>
